<?xml version="1.0" standalone="no"?>
<!DOCTYPE svg PUBLIC "-//W3C//DTD SVG 20010904//EN"
 "http://www.w3.org/TR/2001/REC-SVG-20010904/DTD/svg10.dtd">
<svg version="1.0" xmlns="http://www.w3.org/2000/svg"
 width="700.000000pt" height="700.000000pt" viewBox="0 0 700.000000 700.000000"
 preserveAspectRatio="xMidYMid meet">
<metadata>
Created by potrace 1.14, written by Peter Selinger 2001-2017
</metadata>
<g transform="translate(0.000000,700.000000) scale(0.100000,-0.100000)"
fill="#000000" stroke="none">
<path d="M3891 6709 c-25 -5 -61 -11 -81 -14 -20 -3 -47 -8 -60 -10 -14 -3
-54 -10 -90 -16 -116 -18 -112 -17 -106 -47 3 -15 8 -40 10 -57 3 -16 13 -73
22 -125 9 -52 17 -104 18 -115 1 -17 -27 -26 -254 -82 -318 -78 -290 -71 -325
-78 -16 -3 -140 -33 -275 -66 -135 -33 -256 -63 -269 -65 -14 -3 -99 -23 -190
-45 -91 -23 -173 -42 -181 -44 -8 -2 -109 -27 -225 -55 -115 -28 -221 -53
-235 -56 -14 -3 -43 -10 -65 -16 -22 -5 -47 -12 -55 -13 -8 -2 -100 -24 -205
-50 -262 -64 -546 -132 -828 -200 l-238 -57 5 -27 c3 -14 8 -39 10 -56 15 -92
38 -226 46 -265 5 -25 12 -61 14 -80 3 -19 15 -89 26 -155 11 -66 32 -185 46
-265 14 -80 27 -156 29 -170 8 -44 36 -204 41 -235 2 -16 11 -66 19 -110 8
-44 24 -134 35 -200 11 -66 23 -131 25 -145 3 -14 10 -54 15 -90 12 -74 18
-104 25 -140 3 -14 7 -38 10 -55 3 -16 7 -43 10 -60 3 -16 15 -88 27 -160 21
-129 29 -148 58 -140 8 2 47 7 85 10 39 4 84 9 100 10 17 2 57 6 90 9 33 4 78
8 100 11 42 4 143 15 185 20 14 1 57 5 95 9 39 3 81 8 95 11 14 2 54 7 90 10
36 3 79 7 95 9 17 2 64 7 105 11 41 3 82 8 90 10 8 2 48 7 88 10 41 4 81 8 90
10 9 1 53 6 97 10 44 3 91 8 105 10 14 2 54 6 90 10 36 3 81 8 100 10 19 2 60
7 90 10 30 3 71 8 90 10 19 3 62 7 95 10 33 3 71 7 85 10 14 2 57 7 95 10 76
7 113 10 285 30 19 2 64 7 100 10 36 3 81 8 100 10 19 2 82 9 140 15 99 10
136 14 220 25 19 2 62 7 95 10 60 5 107 10 200 20 28 3 60 7 72 9 24 5 28 -2
37 -64 12 -74 14 -86 20 -110 6 -26 11 -54 22 -127 3 -23 7 -43 8 -43 2 0 65
11 131 24 11 2 40 7 65 11 25 4 54 9 65 11 11 2 46 8 78 14 61 10 80 17 73 29
-3 4 -21 102 -41 217 -19 116 -38 222 -40 235 -5 24 -33 183 -40 229 -2 14
-18 106 -35 205 -17 99 -33 191 -35 205 -2 14 -16 90 -30 170 -26 147 -49 280
-59 335 -6 39 -35 211 -42 250 -2 17 -7 37 -9 45 -2 8 -6 33 -10 55 -3 22 -10
67 -16 100 -16 87 -16 86 -45 255 -15 85 -30 175 -34 200 -4 25 -15 88 -24
140 -9 52 -19 106 -21 120 -3 14 -7 36 -9 50 -3 14 -8 41 -10 60 -3 19 -8 46
-11 60 -2 13 -7 40 -10 60 -3 20 -8 47 -10 60 -3 14 -8 41 -10 60 -3 19 -8 44
-10 56 -3 12 -7 36 -10 55 -43 271 -35 254 -114 238z"/>
<path d="M2783 2734 c-54 -69 -110 -140 -125 -157 -14 -17 -24 -35 -22 -39 3
-4 53 -45 112 -90 59 -46 116 -90 127 -100 11 -9 58 -46 105 -83 47 -36 99
-76 115 -89 17 -13 89 -70 160 -125 72 -56 137 -107 145 -114 8 -7 95 -75 192
-151 l178 -139 -27 -36 c-15 -20 -53 -69 -85 -110 -32 -40 -58 -76 -58 -80 1
-3 53 -46 117 -96 117 -90 250 -195 332 -260 24 -19 47 -35 51 -35 4 0 45 49
91 109 l83 110 36 -27 c20 -15 52 -39 71 -54 19 -15 185 -145 370 -290 184
-145 351 -275 370 -290 156 -124 292 -228 297 -228 7 1 245 304 249 318 1 4
-80 71 -180 149 -100 78 -342 267 -537 420 -195 153 -416 326 -490 384 -74 58
-409 321 -745 584 -840 659 -822 645 -828 645 -3 0 -50 -57 -104 -126z"/>
<path d="M6377 1630 c-50 -31 -80 -72 -98 -131 -11 -35 -13 -36 -43 -28 -76
21 -160 12 -231 -23 -67 -34 -67 -33 -32 -96 18 -31 43 -79 56 -107 13 -27 27
-57 31 -66 9 -18 29 -88 38 -134 14 -72 6 -240 -16 -310 -22 -72 -101 -213
-147 -262 -32 -36 -32 -43 8 -70 70 -47 144 -61 246 -44 53 9 75 8 120 -6 96
-28 242 -2 274 49 7 11 -1 31 -33 78 -47 69 -106 190 -115 236 -25 126 -26
207 -1 304 26 100 63 166 152 274 l61 73 -31 28 c-54 48 -113 68 -198 69 -43
1 -78 2 -78 4 0 20 48 88 72 100 58 32 71 47 64 70 -10 31 -43 28 -99 -8z"/>
<path d="M2270 1591 c0 -5 3 -11 8 -13 4 -1 52 -52 107 -113 55 -60 105 -114
110 -120 6 -5 19 -21 30 -34 l20 -23 -60 6 c-33 4 -109 8 -170 11 -102 4 -263
12 -377 19 -27 2 -48 2 -48 1 0 -1 97 -66 215 -145 118 -79 214 -144 213 -145
-3 -3 -113 -13 -233 -21 -44 -4 -93 -8 -110 -9 -16 -2 -34 -4 -39 -4 -5 -1 38
-34 95 -74 57 -40 129 -90 159 -111 49 -34 121 -88 142 -106 4 -3 -3 -7 -17
-8 -14 -1 -57 -8 -97 -16 -40 -8 -89 -17 -108 -20 -19 -3 -46 -8 -60 -11 -13
-3 -42 -7 -64 -11 -61 -9 -65 -17 -16 -30 25 -6 243 -69 485 -140 385 -112
450 -128 521 -130 90 -3 148 11 224 52 54 30 130 99 157 144 9 17 24 30 33 30
8 0 132 -34 274 -75 143 -41 264 -75 270 -75 9 0 100 301 93 305 -4 3 -464
135 -509 147 l-48 12 -2 46 c-6 192 -129 357 -308 412 -102 31 -205 61 -270
79 -66 17 -585 166 -607 174 -7 2 -13 0 -13 -4z"/>
</g>
</svg>
