<svg xmlns="http://www.w3.org/2000/svg" version="1.1" xmlns:xlink="http://www.w3.org/1999/xlink" xmlns:svgjs="http://svgjs.dev/svgjs" width="1000" height="103" viewBox="0 0 1000 103"><g transform="matrix(1,0,0,1,-0.6060606060606233,-0.1901947822193648)"><svg xmlns="http://www.w3.org/2000/svg" version="1.1" xmlns:xlink="http://www.w3.org/1999/xlink" xmlns:svgjs="http://svgjs.com/svgjs" viewBox="0 0 396 41" data-background-color="#ffffff" preserveAspectRatio="xMidYMid meet" height="103" width="1000"><defs></defs><g id="tight-bounds" transform="matrix(1,0,0,1,0.2400000000000091,0.07570860263101054)"><svg viewBox="0 0 395.52 40.848582794737986" height="40.848582794737986" width="395.52"><g><svg viewBox="0 0 552.7895349466608 57.09109295695131" height="40.848582794737986" width="395.52"><g transform="matrix(1,0,0,1,157.26953494666077,7.8903030063514485)"><svg viewBox="0 0 395.52 41.31048694424841" height="41.31048694424841" width="395.52"><g><svg viewBox="0 0 395.52 41.31048694424841" height="41.31048694424841" width="395.52"><g><svg viewBox="0 0 395.52 41.31048694424841" height="41.31048694424841" width="395.52"><g transform="matrix(1,0,0,1,0,0)"><svg width="395.52" viewBox="1.95 -36.5 353.62 37" height="41.31048694424841" data-palette-color="#3c3b3b"><g class="undefined-text-0" data-fill-palette-color="primary" id="text-0"><path d="M1.95-18L1.95-18Q1.95-21.25 3.08-24.38 4.2-27.5 6.38-30.08 8.55-32.65 11.7-34.18 14.85-35.7 18.85-35.7L18.85-35.7Q23.6-35.7 27-33.52 30.4-31.35 32.05-27.95L32.05-27.95 28.5-25.65Q27.45-27.9 25.83-29.23 24.2-30.55 22.33-31.1 20.45-31.65 18.65-31.65L18.65-31.65Q15.7-31.65 13.43-30.45 11.15-29.25 9.6-27.25 8.05-25.25 7.28-22.78 6.5-20.3 6.5-17.8L6.5-17.8Q6.5-15.05 7.43-12.5 8.35-9.95 10-8 11.65-6.05 13.9-4.9 16.15-3.75 18.8-3.75L18.8-3.75Q20.65-3.75 22.6-4.4 24.55-5.05 26.25-6.43 27.95-7.8 28.95-10L28.95-10 32.7-7.95Q31.6-5.3 29.3-3.45 27-1.6 24.18-0.65 21.35 0.3 18.6 0.3L18.6 0.3Q14.95 0.3 11.9-1.28 8.85-2.85 6.63-5.48 4.4-8.1 3.18-11.38 1.95-14.65 1.95-18ZM37.75-5.15L37.75-36.5 42.15-36.5 42.15-6.75Q42.15-4.6 42.75-4.1 43.35-3.6 44.2-3.6L44.2-3.6Q45.25-3.6 46.2-3.83 47.15-4.05 47.8-4.3L47.8-4.3 48.5-0.7Q47.4-0.25 45.9 0.05 44.4 0.35 43.25 0.35L43.25 0.35Q40.7 0.35 39.22-1.1 37.75-2.55 37.75-5.15L37.75-5.15ZM51.7-10.45L51.7-10.45 51.7-26.1 56.1-26.1 56.1-11.3Q56.1-7.3 57.5-5.3 58.9-3.3 61.65-3.3L61.65-3.3Q63.45-3.3 65.12-4.08 66.8-4.85 68.15-6.3 69.5-7.75 70.25-9.75L70.25-9.75 70.25-26.1 74.65-26.1 74.65-5Q74.65-4.2 74.97-3.83 75.3-3.45 76.05-3.4L76.05-3.4 76.05 0Q75.3 0.1 74.87 0.13 74.45 0.15 74.05 0.15L74.05 0.15Q72.8 0.15 71.9-0.63 71-1.4 70.95-2.55L70.95-2.55 70.85-5.6Q69.15-2.7 66.27-1.1 63.4 0.5 60 0.5L60 0.5Q55.9 0.5 53.8-2.27 51.7-5.05 51.7-10.45ZM94.44-4.8L95.49-1.3Q94.94-1.05 93.99-0.65 93.04-0.25 91.79 0.05 90.54 0.35 89.14 0.35L89.14 0.35Q87.54 0.35 86.19-0.23 84.84-0.8 84.04-2.02 83.24-3.25 83.24-5.1L83.24-5.1 83.24-22.65 79.69-22.65 79.69-26.1 83.24-26.1 83.24-34.8 87.64-34.8 87.64-26.1 93.49-26.1 93.49-22.65 87.64-22.65 87.64-6.45Q87.74-5.05 88.59-4.38 89.44-3.7 90.59-3.7L90.59-3.7Q91.89-3.7 92.99-4.15 94.09-4.6 94.44-4.8L94.44-4.8ZM112.04-4.8L113.09-1.3Q112.54-1.05 111.59-0.65 110.64-0.25 109.39 0.05 108.14 0.35 106.74 0.35L106.74 0.35Q105.14 0.35 103.79-0.23 102.44-0.8 101.64-2.02 100.84-3.25 100.84-5.1L100.84-5.1 100.84-22.65 97.29-22.65 97.29-26.1 100.84-26.1 100.84-34.8 105.24-34.8 105.24-26.1 111.09-26.1 111.09-22.65 105.24-22.65 105.24-6.45Q105.34-5.05 106.19-4.38 107.04-3.7 108.19-3.7L108.19-3.7Q109.49-3.7 110.59-4.15 111.69-4.6 112.04-4.8L112.04-4.8ZM128.74 0.5L128.74 0.5Q125.79 0.5 123.36-0.58 120.94-1.65 119.16-3.53 117.39-5.4 116.41-7.85 115.44-10.3 115.44-13.05L115.44-13.05Q115.44-16.75 117.14-19.8 118.84-22.85 121.86-24.7 124.89-26.55 128.79-26.55L128.79-26.55Q132.74-26.55 135.66-24.68 138.59-22.8 140.21-19.78 141.84-16.75 141.84-13.25L141.84-13.25Q141.84-12.75 141.81-12.28 141.79-11.8 141.74-11.55L141.74-11.55 120.09-11.55Q120.29-9 121.51-7.03 122.74-5.05 124.69-3.93 126.64-2.8 128.89-2.8L128.89-2.8Q131.29-2.8 133.41-4 135.54-5.2 136.34-7.15L136.34-7.15 140.14-6.1Q139.29-4.2 137.61-2.7 135.94-1.2 133.66-0.35 131.39 0.5 128.74 0.5ZM119.94-14.6L119.94-14.6 137.74-14.6Q137.54-17.15 136.29-19.1 135.04-21.05 133.09-22.15 131.14-23.25 128.79-23.25L128.79-23.25Q126.49-23.25 124.54-22.15 122.59-21.05 121.36-19.1 120.14-17.15 119.94-14.6ZM160.54-26.25L160.54-22.25Q157.24-22.2 154.71-20.58 152.19-18.95 151.14-16.1L151.14-16.1 151.14 0 146.74 0 146.74-26.1 150.84-26.1 150.84-20.05Q152.19-22.75 154.41-24.43 156.64-26.1 159.09-26.3L159.09-26.3Q159.59-26.3 159.94-26.3 160.29-26.3 160.54-26.25L160.54-26.25ZM176.43 0.5L176.43 0.5Q173.48 0.5 171.06-0.58 168.63-1.65 166.86-3.53 165.08-5.4 164.11-7.85 163.13-10.3 163.13-13.05L163.13-13.05Q163.13-16.75 164.83-19.8 166.53-22.85 169.56-24.7 172.58-26.55 176.48-26.55L176.48-26.55Q180.43-26.55 183.36-24.68 186.28-22.8 187.91-19.78 189.53-16.75 189.53-13.25L189.53-13.25Q189.53-12.75 189.51-12.28 189.48-11.8 189.43-11.55L189.43-11.55 167.78-11.55Q167.98-9 169.21-7.03 170.43-5.05 172.38-3.93 174.33-2.8 176.58-2.8L176.58-2.8Q178.98-2.8 181.11-4 183.23-5.2 184.03-7.15L184.03-7.15 187.83-6.1Q186.98-4.2 185.31-2.7 183.63-1.2 181.36-0.35 179.08 0.5 176.43 0.5ZM167.63-14.6L167.63-14.6 185.43-14.6Q185.23-17.15 183.98-19.1 182.73-21.05 180.78-22.15 178.83-23.25 176.48-23.25L176.48-23.25Q174.18-23.25 172.23-22.15 170.28-21.05 169.06-19.1 167.83-17.15 167.63-14.6ZM192.73-13L192.73-13Q192.73-16.7 194.26-19.78 195.78-22.85 198.46-24.7 201.13-26.55 204.58-26.55L204.58-26.55Q207.73-26.55 210.23-24.9 212.73-23.25 214.13-20.9L214.13-20.9 214.13-36.5 218.53-36.5 218.53-5Q218.53-4.2 218.86-3.83 219.18-3.45 219.93-3.4L219.93-3.4 219.93 0Q218.68 0.2 217.98 0.2L217.98 0.2Q216.68 0.2 215.71-0.7 214.73-1.6 214.73-2.7L214.73-2.7 214.73-4.9Q213.18-2.4 210.58-0.95 207.98 0.5 205.18 0.5L205.18 0.5Q202.48 0.5 200.21-0.58 197.93-1.65 196.26-3.55 194.58-5.45 193.66-7.88 192.73-10.3 192.73-13ZM214.13-9.15L214.13-9.15 214.13-16.65Q213.53-18.35 212.18-19.73 210.83-21.1 209.16-21.93 207.48-22.75 205.83-22.75L205.83-22.75Q203.88-22.75 202.31-21.93 200.73-21.1 199.61-19.73 198.48-18.35 197.88-16.6 197.28-14.85 197.28-12.95L197.28-12.95Q197.28-11 197.96-9.25 198.63-7.5 199.86-6.15 201.08-4.8 202.71-4.05 204.33-3.3 206.23-3.3L206.23-3.3Q207.43-3.3 208.71-3.75 209.98-4.2 211.13-5 212.28-5.8 213.08-6.88 213.88-7.95 214.13-9.15Z" fill="#3c3b3b" data-fill-palette-color="primary"></path><path d="M228.68 0L224.18 0 224.18-35.5 239.38-35.5Q241.73-35.5 243.68-34.52 245.63-33.55 247.08-31.93 248.53-30.3 249.33-28.28 250.13-26.25 250.13-24.15L250.13-24.15Q250.13-21.7 249.21-19.5 248.28-17.3 246.61-15.75 244.93-14.2 242.68-13.6L242.68-13.6 251.28 0 246.18 0 238.08-12.75 228.68-12.75 228.68 0ZM228.68-31.5L228.68-16.75 239.43-16.75Q241.28-16.75 242.66-17.78 244.03-18.8 244.81-20.5 245.58-22.2 245.58-24.15L245.58-24.15Q245.58-26.15 244.68-27.83 243.78-29.5 242.33-30.5 240.88-31.5 239.13-31.5L239.13-31.5 228.68-31.5ZM267.73 0.5L267.73 0.5Q264.78 0.5 262.38-0.58 259.98-1.65 258.23-3.53 256.48-5.4 255.53-7.85 254.58-10.3 254.58-13L254.58-13Q254.58-15.75 255.53-18.2 256.48-20.65 258.23-22.53 259.98-24.4 262.4-25.48 264.83-26.55 267.78-26.55L267.78-26.55Q270.68-26.55 273.08-25.48 275.48-24.4 277.25-22.53 279.03-20.65 279.98-18.2 280.93-15.75 280.93-13L280.93-13Q280.93-10.3 279.98-7.85 279.03-5.4 277.28-3.53 275.53-1.65 273.1-0.58 270.68 0.5 267.73 0.5ZM259.08-12.95L259.08-12.95Q259.08-10.25 260.25-8.05 261.43-5.85 263.38-4.58 265.33-3.3 267.73-3.3L267.73-3.3Q270.13-3.3 272.1-4.6 274.08-5.9 275.25-8.13 276.43-10.35 276.43-13.05L276.43-13.05Q276.43-15.75 275.25-17.95 274.08-20.15 272.1-21.45 270.13-22.75 267.73-22.75L267.73-22.75Q265.33-22.75 263.38-21.43 261.43-20.1 260.25-17.9 259.08-15.7 259.08-12.95ZM297.68 0.5L297.68 0.5Q294.73 0.5 292.33-0.58 289.93-1.65 288.18-3.53 286.43-5.4 285.48-7.85 284.53-10.3 284.53-13L284.53-13Q284.53-15.75 285.48-18.2 286.43-20.65 288.18-22.53 289.93-24.4 292.35-25.48 294.78-26.55 297.73-26.55L297.73-26.55Q300.63-26.55 303.03-25.48 305.43-24.4 307.2-22.53 308.98-20.65 309.93-18.2 310.88-15.75 310.88-13L310.88-13Q310.88-10.3 309.93-7.85 308.98-5.4 307.23-3.53 305.48-1.65 303.05-0.58 300.63 0.5 297.68 0.5ZM289.03-12.95L289.03-12.95Q289.03-10.25 290.2-8.05 291.38-5.85 293.33-4.58 295.28-3.3 297.68-3.3L297.68-3.3Q300.08-3.3 302.05-4.6 304.03-5.9 305.2-8.13 306.38-10.35 306.38-13.05L306.38-13.05Q306.38-15.75 305.2-17.95 304.03-20.15 302.05-21.45 300.08-22.75 297.68-22.75L297.68-22.75Q295.28-22.75 293.33-21.43 291.38-20.1 290.2-17.9 289.03-15.7 289.03-12.95ZM355.57-15.6L355.57 0 351.17 0 351.17-14.6Q351.17-18.7 349.85-20.65 348.52-22.6 345.92-22.6L345.92-22.6Q343.27-22.6 341.12-20.68 338.97-18.75 338.07-15.7L338.07-15.7 338.07 0 333.67 0 333.67-14.6Q333.67-18.75 332.37-20.68 331.07-22.6 328.47-22.6L328.47-22.6Q325.87-22.6 323.7-20.73 321.52-18.85 320.62-15.75L320.62-15.75 320.62 0 316.22 0 316.22-26.1 320.22-26.1 320.22-20.5Q321.82-23.4 324.37-24.98 326.92-26.55 330.12-26.55L330.12-26.55Q333.37-26.55 335.32-24.78 337.27-23 337.72-20.2L337.72-20.2Q339.47-23.3 341.97-24.93 344.47-26.55 347.67-26.55L347.67-26.55Q349.92-26.55 351.45-25.73 352.97-24.9 353.87-23.43 354.77-21.95 355.17-19.95 355.57-17.95 355.57-15.6L355.57-15.6Z" fill="#3c3b3b" data-fill-palette-color="primary"></path></g></svg></g></svg></g></svg></g></svg></g><g><svg viewBox="0 0 147.5171204308104 57.09109295695131" height="57.09109295695131" width="147.5171204308104"><g><svg xmlns="http://www.w3.org/2000/svg" viewBox="5 60.17 89.99999999999999 34.831200277770975" x="0" y="0" height="57.09109295695131" width="147.5171204308104" class="icon-icon-0" fill="#3c3b3b" data-fill-palette-color="accent" id="icon-0"><path d="M40.861 60.17l-3.998 0.692 0.576 3.326-32.439 7.835 3.949 22.815 33.18-3.524 0.579 3.342 3.998-0.692-5.849-33.791" fill="#3c3b3b" data-fill-palette-color="accent"></path><path d="M85.57 91.69l-2.469 3.15-11.05-8.659-1.703 2.173-4.9-3.841 1.703-2.173-11.05-8.658 2.469-3.15z" fill="#3c3b3b" data-fill-palette-color="accent"></path><path d="M63.37 92.7c-0.977 1.75-2.994 2.696-4.911 2.144l-9.286-2.67 4.127-0.753-4.01-2.841 3.863-0.308-4.286-2.846 6.396 0.336-2.756-2.994 8.706 2.503c1.921 0.552 3.136 2.411 3.02 4.425l5.428 1.561-0.863 3z" fill="#3c3b3b" data-fill-palette-color="accent"></path><path d="M93.14 82.14c-0.462 0.116-0.946 0.392-1.227 0.713-0.281 0.32-0.482 0.741-0.574 1.269-1.143-0.409-2.232-0.217-3.163 0.497 0.723 1.331 1.609 2.665 1.609 4.695 0 2.03-0.603 3.049-1.97 4.772 1.084 0.951 1.995 0.912 3.434 0.587 0.814 0.487 2.467 0.464 3.276-0.339-1.199-1.7-1.845-3.01-1.762-4.79 0.081-1.76 0.802-2.927 2.237-4.474-0.814-0.915-1.788-1.156-2.96-0.904 0.079-0.373 0.202-0.623 0.407-0.859 0.205-0.236 0.552-0.427 0.963-0.586-0.022-0.279-0.126-0.474-0.269-0.582" color="#3C3B3B" fill="#3c3b3b" data-fill-palette-color="accent"></path></svg></g></svg></g></svg></g></svg><rect width="395.52" height="40.848582794737986" fill="transparent" stroke="transparent"></rect></g></svg></g></svg>