<svg xmlns="http://www.w3.org/2000/svg" version="1.1" xmlns:xlink="http://www.w3.org/1999/xlink" xmlns:svgjs="http://svgjs.com/svgjs" width="420" height="420"><svg width="420" height="420" version="1.1" viewBox="0 0 111.12 111.12" xmlns="http://www.w3.org/2000/svg">
 <g transform="translate(-2.8949 -1.93)" fill="#3c3b3b" data-darkreader-inline-fill="" style="--darkreader-inline-fill:#2d3132;">
  <g transform="matrix(1.6391 0 0 1.6391 -47.31 -48.038)">
   <path d="m85.57 91.69-2.469 3.15-11.05-8.659-1.703 2.173-4.9-3.841 1.703-2.173-11.05-8.658 2.469-3.15z" data-fill-palette-color="accent"></path>
   <path d="m63.37 92.7c-0.977 1.75-2.994 2.696-4.911 2.144l-9.286-2.67 4.127-0.753-4.01-2.841 3.863-0.308-4.286-2.846 6.396 0.336-2.756-2.994 8.706 2.503c1.921 0.552 3.136 2.411 3.02 4.425l5.428 1.561-0.863 3z" data-fill-palette-color="accent"></path>
   <path d="m93.14 82.14c-0.462 0.116-0.946 0.392-1.227 0.713-0.281 0.32-0.482 0.741-0.574 1.269-1.143-0.409-2.232-0.217-3.163 0.497 0.723 1.331 1.609 2.665 1.609 4.695s-0.603 3.049-1.97 4.772c1.084 0.951 1.995 0.912 3.434 0.587 0.814 0.487 2.467 0.464 3.276-0.339-1.199-1.7-1.845-3.01-1.762-4.79 0.081-1.76 0.802-2.927 2.237-4.474-0.814-0.915-1.788-1.156-2.96-0.904 0.079-0.373 0.202-0.623 0.407-0.859s0.552-0.427 0.963-0.586c-0.022-0.279-0.126-0.474-0.269-0.582" color="#3c3b3b" data-fill-palette-color="accent" data-darkreader-inline-color="" style="--darkreader-inline-color:#c2bdb5;"></path>
  </g>
  <path d="m65.792 6.3481-6.553 1.1342 0.94411 5.4516-53.17 12.842 6.4727 37.396 54.385-5.7761 0.94903 5.4778 6.553-1.1342-9.587-55.386" stroke-width="1.6391" data-fill-palette-color="accent"></path>
 </g>
</svg><style>@media (prefers-color-scheme: light) { :root { filter: none; } }
@media (prefers-color-scheme: dark) { :root { filter: invert(100%); } }
</style></svg>