<?xml version="1.0" standalone="no"?>
<!DOCTYPE svg PUBLIC "-//W3C//DTD SVG 20010904//EN"
 "http://www.w3.org/TR/2001/REC-SVG-20010904/DTD/svg10.dtd">
<svg version="1.0" xmlns="http://www.w3.org/2000/svg"
 width="300.000000pt" height="300.000000pt" viewBox="0 0 300.000000 300.000000"
 preserveAspectRatio="xMidYMid meet">
<metadata>
Created by potrace 1.14, written by Peter Selinger 2001-2017
</metadata>
<g transform="translate(0.000000,300.000000) scale(0.100000,-0.100000)"
fill="#000000" stroke="none">
<path d="M1525 2923 c-43 -8 -81 -16 -83 -18 -3 -2 1 -33 8 -69 12 -66 9 -86
-15 -86 -7 0 -208 -47 -447 -105 -238 -58 -548 -133 -688 -166 -140 -34 -260
-65 -266 -68 -8 -4 2 -81 32 -251 23 -135 62 -356 85 -492 23 -136 45 -252 49
-257 4 -7 177 8 520 44 959 102 940 101 950 86 4 -8 11 -38 15 -67 3 -30 10
-56 15 -59 11 -7 152 15 163 25 8 7 -241 1480 -252 1491 -3 3 -42 0 -86 -8z"/>
<path d="M1288 1090 c-27 -32 -48 -63 -48 -69 0 -5 102 -89 228 -186 125 -98
233 -184 241 -191 11 -10 8 -20 -24 -59 -22 -26 -34 -49 -29 -54 5 -4 53 -43
108 -86 l98 -78 27 34 c14 18 31 40 37 48 9 11 15 12 25 5 8 -6 118 -93 246
-192 l232 -181 38 47 c20 26 45 56 55 68 19 21 17 22 -576 488 -328 256 -599
466 -603 466 -5 0 -29 -27 -55 -60z"/>
<path d="M2837 620 c-14 -11 -29 -29 -32 -40 -5 -16 -15 -20 -51 -20 -37 0
-74 -10 -92 -25 -2 -2 8 -26 23 -55 58 -114 54 -224 -10 -320 l-34 -50 23 -15
c16 -11 45 -15 94 -13 68 1 73 3 107 38 l36 36 -20 45 c-23 49 -27 128 -10
180 7 19 27 56 46 83 35 48 35 49 15 68 -12 13 -35 20 -61 21 -49 2 -53 18
-11 48 16 12 27 26 24 31 -8 13 -19 10 -47 -12z"/>
<path d="M1133 549 c31 -35 55 -64 54 -66 -2 -1 -59 1 -129 5 -82 5 -124 4
-122 -3 3 -5 39 -32 81 -60 75 -49 76 -50 47 -56 -16 -4 -51 -7 -77 -8 -28 -1
-46 -5 -42 -11 3 -5 40 -33 81 -61 82 -57 82 -63 -1 -75 -103 -14 -95 -19 131
-82 120 -34 224 -62 229 -62 37 1 94 28 131 62 l44 41 110 -32 c60 -17 113
-31 118 -31 9 0 46 119 39 127 -2 2 -55 18 -118 36 l-114 33 -7 42 c-9 56 -41
106 -81 131 -18 10 -113 42 -212 71 -99 28 -189 54 -199 57 -13 3 1 -17 37
-58z"/>
</g>
</svg>
